<svg width="34" height="34" viewBox="0 0 34 34" fill="none" xmlns="http://www.w3.org/2000/svg">
<path d="M25.5 31.1667H8.49999C6.93518 31.1667 5.66666 29.8981 5.66666 28.3333V5.66666C5.66666 4.10185 6.93518 2.83333 8.49999 2.83333H18.4167C18.4294 2.83168 18.4422 2.83168 18.4549 2.83333H18.4634C18.4768 2.83752 18.4905 2.84036 18.5045 2.84183C18.6294 2.84984 18.7528 2.87412 18.8714 2.91408H18.8927H18.9139H18.9309C18.957 2.93239 18.9817 2.95276 19.0046 2.97499C19.1589 3.04359 19.2995 3.13959 19.4197 3.25833L27.9197 11.7583C28.0384 11.8784 28.1344 12.0191 28.203 12.1734C28.2157 12.2046 28.2257 12.2343 28.2356 12.2669L28.2497 12.3066C28.2893 12.4247 28.3126 12.5477 28.3192 12.6721C28.3204 12.6862 28.3237 12.7 28.3291 12.7132V12.7217C28.3314 12.7309 28.3328 12.7404 28.3333 12.75V28.3333C28.3333 29.0848 28.0348 29.8054 27.5035 30.3368C26.9721 30.8682 26.2514 31.1667 25.5 31.1667ZM18.4167 5.66666V12.75H25.5L18.4167 5.66666Z" fill="#00BC78"/>
<path d="M18.298 26L16.939 23.885L15.706 26H14.284L16.264 22.832L14.257 19.718H15.706L17.065 21.824L18.289 19.718H19.711L17.74 22.877L19.747 26H18.298Z" fill="white"/>
</svg>
